
      <svg data-logo="logo" xmlns="http://www.w3.org/2000/svg" viewBox="0 0 205 42">
        <g id="logogram" transform="translate(0, 1) rotate(0) "><path d="M24 0H16V12.0632C15.9663 14.2434 14.1885 16 12.0005 16H0V24H8.68629C10.808 24 12.8429 23.1571 14.3431 21.6569L21.6569 14.3431C23.1571 12.8429 24 10.808 24 8.68629V0Z" fill="url(#paint0_linear_7697_8782)"/><path d="M16 40H24V27.9368C24.0337 25.7566 25.8115 24 27.9995 24H40V16H31.3137C29.192 16 27.1571 16.8429 25.6569 18.3431L18.3431 25.6569C16.8429 27.1571 16 29.192 16 31.3137V40Z" fill="url(#paint1_linear_7697_8782)"/></g>
        <g id="logotype" transform="translate(45, 8)"><path fill="#00a7fa" d="M30.38 26L7.03 26L7.03 1.15L30.13 1.15L30.13 6.33L14.03 6.33L14.03 10.95L28.56 10.95L28.56 15.92L14.03 15.92L14.03 20.82L30.38 20.82L30.38 26ZM40.32 26L33.53 26L33.53 1.15L40.32 1.15L40.32 26ZM50.75 5.70L44.03 5.70L44.03 0.80L50.75 0.80L50.75 5.70ZM50.75 26L43.96 26L43.96 8.01L50.75 8.01L50.75 26ZM65.87 26.42L65.87 26.42Q63.35 26.42 61.40 25.84Q59.46 25.27 58.34 23.88Q57.22 22.50 57.22 20.12L57.22 20.12L57.22 12.45L52.92 12.45L52.92 8.01L57.36 8.01L58.20 2.44L64.01 2.44L64.01 8.01L71.61 8.01L71.61 12.45L64.01 12.45L64.01 19.31Q64.01 20.40 64.54 20.93Q65.06 21.45 65.90 21.61Q66.74 21.77 67.65 21.77L67.65 21.77Q68.63 21.77 69.70 21.63Q70.77 21.48 71.96 21.31L71.96 21.31L71.96 25.72Q70.31 26.07 68.89 26.25Q67.48 26.42 65.87 26.42ZM85.29 26.42L85.29 26.42Q81.69 26.42 78.85 25.34Q76.02 24.25 74.39 22.15Q72.76 20.05 72.76 17.00L72.76 17.00Q72.76 13.92 74.30 11.82Q75.84 9.72 78.62 8.66Q81.41 7.59 85.08 7.59L85.08 7.59Q88.97 7.59 91.66 8.80Q94.36 10.00 95.67 12.40Q96.98 14.80 96.63 18.34L96.63 18.34L79.59 18.34Q79.76 19.80 81.14 20.82Q82.53 21.84 85.29 21.84L85.29 21.84Q87.74 21.84 88.81 21.27Q89.88 20.71 90.37 19.80L90.37 19.80L96.56 20.47Q95.79 23.38 92.75 24.90Q89.70 26.42 85.29 26.42ZM85.15 11.82L85.15 11.82Q82.53 11.82 81.21 12.72Q79.90 13.61 79.62 14.87L79.62 14.87L90.44 14.87Q90.22 13.40 88.91 12.61Q87.60 11.82 85.15 11.82ZM114.23 26.45L114.23 26.45Q109.75 26.45 106.27 24.86Q102.79 23.27 100.81 20.38Q98.83 17.49 98.83 13.57L98.83 13.57Q98.83 9.65 100.81 6.78Q102.79 3.91 106.27 2.34Q109.75 0.76 114.23 0.76L114.23 0.76Q118.16 0.76 121.13 1.88Q124.11 3.00 126.03 4.95Q127.95 6.89 128.62 9.30L128.62 9.30L122.36 10.81Q121.62 8.99 120.40 7.96Q119.17 6.92 117.61 6.50Q116.06 6.08 114.34 6.08L114.34 6.08Q112.03 6.08 110.11 6.87Q108.18 7.66 107.04 9.23Q105.91 10.81 105.91 13.22L105.91 13.22L105.91 13.92Q105.91 16.30 107.04 17.90Q108.18 19.49 110.11 20.28Q112.03 21.06 114.34 21.06L114.34 21.06Q116.06 21.06 117.61 20.64Q119.17 20.23 120.40 19.19Q121.62 18.16 122.36 16.34L122.36 16.34L128.62 17.84Q127.95 20.26 126.03 22.20Q124.11 24.14 121.13 25.30Q118.16 26.45 114.23 26.45ZM147.38 26L139.78 26L127.67 1.15L135.30 1.15L143.81 19.35L152.28 1.15L159.49 1.15L147.38 26Z"/></g>
        <defs xmlns="http://www.w3.org/2000/svg">
<linearGradient id="paint0_linear_7697_8782" x1="20" y1="-0.997096" x2="20" y2="33.7931" gradientUnits="userSpaceOnUse">
<stop stop-color="#75D8FC"/>
<stop offset="1" stop-color="#0072E5"/>
</linearGradient>
<linearGradient id="paint1_linear_7697_8782" x1="20" y1="-0.997096" x2="20" y2="33.7931" gradientUnits="userSpaceOnUse">
<stop stop-color="#75D8FC"/>
<stop offset="1" stop-color="#0072E5"/>
</linearGradient>
</defs>
      </svg>
    